<?xml version="1.0" encoding="utf-8"?>
<!-- Generator: Adobe Illustrator 16.0.0, SVG Export Plug-In . SVG Version: 6.00 Build 0)  -->
<!DOCTYPE svg PUBLIC "-//W3C//DTD SVG 1.1//EN" "http://www.w3.org/Graphics/SVG/1.1/DTD/svg11.dtd">
<svg version="1.1" id="Layer_1" xmlns="http://www.w3.org/2000/svg" xmlns:xlink="http://www.w3.org/1999/xlink" x="0px" y="0px"
	 width="197.176px" height="196.278px" viewBox="0 0 197.176 196.278" enable-background="new 0 0 197.176 196.278"
	 xml:space="preserve">
<path fill="#10003B" d="M160.017,189.854H37.159c-3.801,0-6.894-3.093-6.894-6.894V13.319c0-3.801,3.093-6.894,6.894-6.894h122.858
	c3.802,0,6.894,3.093,6.894,6.894V182.96C166.911,186.761,163.819,189.854,160.017,189.854 M37.159,10.425
	c-1.596,0-2.894,1.298-2.894,2.894V182.96c0,1.596,1.298,2.894,2.894,2.894h122.858c1.597,0,2.894-1.298,2.894-2.894V13.319
	c0-1.596-1.297-2.894-2.894-2.894H37.159z"/>
<path fill="#10003B" d="M143.784,53.562H53.388c-3.908,0-7.089-3.18-7.089-7.089V33.237c0-3.909,3.181-7.09,7.089-7.09h90.396
	c3.909,0,7.089,3.181,7.089,7.09v13.236C150.873,50.382,147.693,53.562,143.784,53.562 M53.388,30.146
	c-1.703,0-3.089,1.386-3.089,3.09v13.236c0,1.703,1.386,3.089,3.089,3.089h90.396c1.703,0,3.089-1.386,3.089-3.089V33.237
	c0-1.704-1.386-3.09-3.089-3.09H53.388z"/>
<path fill="#10003B" d="M72.403,99.207H48.3c-1.105,0-2-0.896-2-2V74.924c0-1.105,0.895-2,2-2h24.103c1.104,0,2,0.895,2,2v22.282
	C74.403,98.311,73.507,99.207,72.403,99.207 M50.3,95.207h20.103V76.924H50.3V95.207z"/>
<path fill="#10003B" d="M110.64,99.207H86.537c-1.104,0-2-0.896-2-2V74.924c0-1.105,0.896-2,2-2h24.104c1.104,0,2,0.895,2,2v22.282
	C112.64,98.311,111.744,99.207,110.64,99.207 M88.537,95.207h20.104V76.924H88.537V95.207z"/>
<path fill="#10003B" d="M148.876,99.207h-24.103c-1.104,0-2-0.896-2-2V74.924c0-1.105,0.896-2,2-2h24.103c1.105,0,2,0.895,2,2
	v22.282C150.876,98.311,149.982,99.207,148.876,99.207 M126.774,95.207h20.103V76.924h-20.103V95.207z"/>
<path fill="#10003B" d="M72.403,134.667H48.3c-1.105,0-2-0.896-2-2v-22.282c0-1.104,0.895-2,2-2h24.103c1.104,0,2,0.896,2,2v22.282
	C74.403,133.771,73.507,134.667,72.403,134.667 M50.3,130.667h20.103v-18.281H50.3V130.667z"/>
<path fill="#10003B" d="M110.64,134.667H86.537c-1.104,0-2-0.896-2-2v-22.282c0-1.104,0.896-2,2-2h24.104c1.104,0,2,0.896,2,2
	v22.282C112.64,133.771,111.744,134.667,110.64,134.667 M88.537,130.667h20.104v-18.281H88.537V130.667z"/>
<path fill="#10003B" d="M148.873,170.132h-24.096c-1.104,0-2-0.896-2-2v-57.744c0-1.104,0.896-2,2-2h24.096c1.105,0,2,0.896,2,2
	v57.744C150.873,169.236,149.978,170.132,148.873,170.132 M126.777,166.132h20.096V112.39h-20.096V166.132z"/>
<path fill="#10003B" d="M72.403,170.129H48.3c-1.105,0-2-0.896-2-2v-22.282c0-1.104,0.895-2,2-2h24.103c1.104,0,2,0.896,2,2v22.282
	C74.403,169.233,73.507,170.129,72.403,170.129 M50.3,166.129h20.103v-18.281H50.3V166.129z"/>
<path fill="#10003B" d="M110.64,170.129H86.537c-1.104,0-2-0.896-2-2v-22.282c0-1.104,0.896-2,2-2h24.104c1.104,0,2,0.896,2,2
	v22.282C112.64,169.233,111.744,170.129,110.64,170.129 M88.537,166.129h20.104v-18.281H88.537V166.129z"/>
</svg>
